<svg width="511" height="375" viewBox="0 0 511 375" fill="none" xmlns="http://www.w3.org/2000/svg">
<path d="M474.047 374.938V332.409C474.047 332.409 490.621 362.56 474.047 374.938Z" fill="#3DBC48"/>
<path d="M475.07 374.93L443.741 346.169C443.741 346.169 477.161 354.35 475.07 374.93Z" fill="#3DBC48"/>
<path d="M339.727 262.598C339.657 261.819 339.759 261.035 340.025 260.3C340.291 259.565 340.716 258.897 341.268 258.344C341.82 257.791 342.487 257.365 343.221 257.097C343.956 256.829 344.74 256.726 345.519 256.794L351.166 245.958L358.588 247.785L350.398 262.975C350.196 264.275 349.525 265.457 348.511 266.296C347.497 267.135 346.21 267.572 344.895 267.526C343.58 267.479 342.327 266.952 341.375 266.044C340.422 265.136 339.836 263.909 339.727 262.598H339.727Z" fill="#FFB7B7"/>
<path d="M373.439 368.16L367.176 368.159L364.197 344.003L373.44 344.004L373.439 368.16Z" fill="#FFB7B7"/>
<path d="M375.036 374.231L354.842 374.23V373.974C354.842 371.89 355.671 369.891 357.145 368.417C358.619 366.943 360.618 366.115 362.702 366.115H362.703L375.036 366.115L375.036 374.231Z" fill="#2F2E41"/>
<path d="M423.809 363.481L417.767 365.129L408.536 342.607L417.454 340.176L423.809 363.481Z" fill="#FFB7B7"/>
<path d="M426.948 368.918L407.465 374.23L407.398 373.984C406.85 371.973 407.123 369.826 408.157 368.016C409.191 366.206 410.902 364.882 412.913 364.333L412.913 364.333L424.813 361.088L426.948 368.918Z" fill="#2F2E41"/>
<path d="M362.005 263.81L358.881 311.251L365.592 364.476L376.584 361.121L377.048 313.565L385.841 286.142L411.876 359.385L423.793 354.989L413.958 307.432L408.404 262.769L362.005 263.81Z" fill="#2F2E41"/>
<path d="M392.378 180.505L373.867 183.235L367.198 189.83L365.128 213.526L366.414 234.516L361.053 271.53C361.053 271.53 374.534 264.046 384.981 273.414C395.428 282.782 410.047 275.069 410.347 268.838L392.378 180.505Z" fill="#CBCBCB"/>
<path d="M382.978 210.224L382.978 210.198L392.173 180.224L392.292 180.216C392.947 180.174 408.364 179.265 411.812 186.877L411.829 186.914L410.781 218.063L412.224 266.847L383.71 273.023L383.503 273.068L382.978 210.224Z" fill="#2F2E41"/>
<path d="M372.788 208.152L374.474 182.743C362.477 183.489 362.658 191.995 362.672 192.366L362.541 230.374L360.138 271.036L368.874 270.38L372.788 208.152Z" fill="#2F2E41"/>
<path d="M345.735 254.388L356.386 229.668L363.82 216.016L367.702 240.643L354.226 260.857L345.735 254.388Z" fill="#2F2E41"/>
<path d="M389.754 245.292C389.917 244.528 390.246 243.808 390.717 243.185C391.188 242.561 391.791 242.048 392.481 241.682C393.172 241.316 393.935 241.106 394.716 241.067C395.496 241.028 396.276 241.161 397 241.455L405.593 232.768L412.146 236.702L399.839 248.8C399.263 249.984 398.273 250.915 397.056 251.417C395.84 251.919 394.481 251.958 393.238 251.526C391.995 251.093 390.954 250.22 390.312 249.071C389.67 247.922 389.471 246.578 389.754 245.292Z" fill="#FFB7B7"/>
<path d="M396.98 238.284L414.5 219.064L402.903 202.515L404.097 194.424L410.932 185.981L411.065 186.153C411.794 187.096 428.915 209.34 429.407 217.76C429.9 226.212 405.29 247.592 404.242 248.497L404.097 248.623L396.98 238.284Z" fill="#2F2E41"/>
<path d="M381.697 178.423C388.574 178.423 394.149 172.848 394.149 165.971C394.149 159.093 388.574 153.518 381.697 153.518C374.819 153.518 369.244 159.093 369.244 165.971C369.244 172.848 374.819 178.423 381.697 178.423Z" fill="#FFB7B7"/>
<path d="M393.408 156.015L394.012 154.8L390.974 153.291C390.974 153.291 387.623 147.839 381.559 149.371C375.496 150.903 372.768 151.82 372.768 151.82L369.738 153.345L371.258 154.858L368.53 155.775L370.353 156.681L368.232 157.899L369.374 164.148C369.374 164.148 371.27 159.409 374.915 161.22C378.56 163.031 385.228 160.284 385.228 160.284L391.02 171.494C391.02 171.494 392.215 167.564 394.346 168.612C394.346 168.612 399.789 159.943 393.408 156.015Z" fill="#2F2E41"/>
<path d="M252.506 226.517L63.1408 278.741L0.783691 52.6342L190.149 0.409912L252.506 226.517Z" fill="white"/>
<path d="M252.506 226.517L63.1408 278.741L0.783691 52.6342L190.149 0.409912L252.506 226.517ZM65.5601 274.479L248.244 224.097L187.73 4.67191L5.04572 55.0536L65.5601 274.479Z" fill="#F1F1F1"/>
<path d="M148.939 101.702L101.471 114.793C100.801 114.977 100.086 114.888 99.4823 114.545C98.8784 114.202 98.4352 113.634 98.2498 112.964L85.1588 65.4964C84.9749 64.8268 85.0642 64.1116 85.407 63.5077C85.7498 62.9038 86.3181 62.4605 86.9873 62.2752L134.455 49.1842C135.125 49.0003 135.84 49.0896 136.444 49.4324C137.048 49.7752 137.491 50.3435 137.677 51.0127L150.768 98.4807C150.951 99.1503 150.862 99.8656 150.519 100.469C150.177 101.073 149.608 101.517 148.939 101.702ZM87.2658 63.2852C86.8643 63.3964 86.5233 63.6623 86.3176 64.0247C86.1119 64.387 86.0583 64.8161 86.1687 65.2179L99.2597 112.686C99.3709 113.087 99.6368 113.428 99.9992 113.634C100.362 113.84 100.791 113.893 101.192 113.783L148.66 100.692C149.062 100.581 149.403 100.315 149.609 99.9525C149.814 99.5902 149.868 99.1611 149.758 98.7593L136.667 51.2913C136.555 50.8898 136.289 50.5488 135.927 50.3431C135.565 50.1374 135.136 50.0838 134.734 50.1942L87.2658 63.2852Z" fill="#E5E5E5"/>
<path d="M136.906 111.269L89.4382 124.36C88.8355 124.526 88.1918 124.446 87.6483 124.137C87.1048 123.829 86.7059 123.317 86.5391 122.715L73.448 75.2467C73.2825 74.644 73.3629 74.0004 73.6714 73.4569C73.9799 72.9134 74.4914 72.5144 75.0937 72.3476L122.562 59.2566C123.164 59.0911 123.808 59.1715 124.352 59.48C124.895 59.7885 125.294 60.3 125.461 60.9023L138.552 108.37C138.717 108.973 138.637 109.617 138.328 110.16C138.02 110.704 137.508 111.103 136.906 111.269Z" fill="#3DBC48"/>
<path d="M191.896 117.75L59.4309 154.281L60.8426 159.4L193.307 122.869L191.896 117.75Z" fill="#F1F1F1"/>
<path d="M195.576 131.096L63.1116 167.628L64.5233 172.747L196.988 136.215L195.576 131.096Z" fill="#F1F1F1"/>
<path d="M199.257 144.443L66.7922 180.975L68.204 186.093L200.669 149.562L199.257 144.443Z" fill="#F1F1F1"/>
<path d="M205.735 167.933L73.2705 204.465L74.6822 209.583L207.147 173.052L205.735 167.933Z" fill="#F1F1F1"/>
<path d="M209.416 181.279L76.9514 217.811L78.3631 222.93L210.828 186.398L209.416 181.279Z" fill="#F1F1F1"/>
<path d="M213.097 194.626L80.6321 231.158L82.0438 236.277L214.508 199.745L213.097 194.626Z" fill="#F1F1F1"/>
<path d="M313.123 277.986H116.688V43.4379H313.123V277.986Z" fill="white"/>
<path d="M313.123 277.986H116.688V43.4379H313.123V277.986ZM120.154 274.52H309.658V46.9033H120.154V274.52Z" fill="#E5E5E5"/>
<path d="M277.359 144.267H165.049V149.577H277.359V144.267Z" fill="#3DBC48"/>
<path d="M277.359 158.073H165.049V163.383H277.359V158.073Z" fill="#3DBC48"/>
<path d="M277.359 171.879H165.049V177.189H277.359V171.879Z" fill="#3DBC48"/>
<path d="M155.918 151.165C157.832 151.165 159.384 149.614 159.384 147.7C159.384 145.786 157.832 144.234 155.918 144.234C154.004 144.234 152.453 145.786 152.453 147.7C152.453 149.614 154.004 151.165 155.918 151.165Z" fill="#6C63FF"/>
<path d="M277.359 84.7772H165.049V90.0872H277.359V84.7772Z" fill="#E5E5E5"/>
<path d="M277.359 98.5832H165.049V103.893H277.359V98.5832Z" fill="#E5E5E5"/>
<path d="M277.359 112.389H165.049V117.699H277.359V112.389Z" fill="#E5E5E5"/>
<path d="M155.918 91.098C157.832 91.098 159.384 89.5465 159.384 87.6326C159.384 85.7187 157.832 84.1672 155.918 84.1672C154.004 84.1672 152.453 85.7187 152.453 87.6326C152.453 89.5465 154.004 91.098 155.918 91.098Z" fill="#E5E5E5"/>
<path d="M277.359 204.334H165.049V209.644H277.359V204.334Z" fill="#E5E5E5"/>
<path d="M277.359 218.14H165.049V223.45H277.359V218.14Z" fill="#E5E5E5"/>
<path d="M277.359 231.946H165.049V237.256H277.359V231.946Z" fill="#E5E5E5"/>
<path d="M155.918 210.655C157.832 210.655 159.384 209.103 159.384 207.19C159.384 205.276 157.832 203.724 155.918 203.724C154.004 203.724 152.453 205.276 152.453 207.19C152.453 209.103 154.004 210.655 155.918 210.655Z" fill="#E5E5E5"/>
<path d="M303.952 298.183C326.126 298.183 344.102 280.207 344.102 258.033C344.102 235.858 326.126 217.883 303.952 217.883C281.778 217.883 263.802 235.858 263.802 258.033C263.802 280.207 281.778 298.183 303.952 298.183Z" fill="#3DBC48"/>
<path d="M315.076 255.471V247.789C315.077 246.328 314.79 244.88 314.232 243.53C313.673 242.179 312.854 240.952 311.821 239.918C310.788 238.884 309.561 238.064 308.211 237.505C306.861 236.945 305.414 236.657 303.952 236.657C302.491 236.657 301.044 236.945 299.694 237.505C298.344 238.064 297.117 238.884 296.084 239.918C295.051 240.952 294.232 242.179 293.673 243.53C293.115 244.88 292.828 246.328 292.829 247.789V255.471C291.342 255.538 289.938 256.176 288.909 257.251C287.88 258.327 287.306 259.758 287.305 261.246V279.4H320.6V261.246C320.599 259.758 320.025 258.327 318.996 257.251C317.967 256.176 316.563 255.538 315.076 255.471ZM303.952 240.582C305.863 240.584 307.695 241.344 309.046 242.695C310.397 244.046 311.157 245.878 311.159 247.789V255.458H296.746V247.789C296.748 245.878 297.508 244.046 298.859 242.695C300.21 241.344 302.042 240.584 303.952 240.582Z" fill="white"/>
<path d="M306.945 264.436C306.945 263.92 306.812 263.413 306.558 262.964C306.305 262.514 305.939 262.138 305.497 261.872C305.055 261.606 304.552 261.458 304.036 261.444C303.52 261.429 303.009 261.548 302.553 261.79C302.097 262.031 301.711 262.386 301.432 262.821C301.154 263.255 300.993 263.754 300.964 264.269C300.935 264.785 301.041 265.298 301.269 265.761C301.498 266.224 301.842 266.619 302.269 266.91V273.415H305.635V266.91C306.039 266.636 306.369 266.267 306.598 265.836C306.826 265.405 306.945 264.924 306.945 264.436Z" fill="#6C63FF"/>
<path d="M509.629 374.699H285.637C285.481 374.699 285.332 374.637 285.221 374.527C285.111 374.417 285.049 374.267 285.049 374.111C285.049 373.955 285.111 373.806 285.221 373.696C285.332 373.585 285.481 373.523 285.637 373.523H509.629C509.784 373.523 509.934 373.585 510.044 373.696C510.154 373.806 510.216 373.955 510.216 374.111C510.216 374.267 510.154 374.417 510.044 374.527C509.934 374.637 509.784 374.699 509.629 374.699Z" fill="#CBCBCB"/>
</svg>
