<svg width="382" height="221" viewBox="0 0 382 221" fill="none" xmlns="http://www.w3.org/2000/svg">
<path d="M306.767 86.6609H306.683L258.471 107.248L192.507 135.415C192.249 135.523 191.973 135.58 191.693 135.581C191.413 135.582 191.136 135.529 190.877 135.423L122.822 107.189L73.4259 86.6945L73.3505 86.6609H73.2664C72.487 86.6618 71.7398 86.9717 71.1887 87.5229C70.6375 88.074 70.3275 88.8212 70.3267 89.6006V217.27C70.3275 218.049 70.6375 218.797 71.1887 219.348C71.7398 219.899 72.487 220.209 73.2664 220.21H306.767C307.546 220.209 308.293 219.899 308.845 219.348C309.396 218.797 309.706 218.049 309.707 217.27V89.6006C309.706 88.8212 309.396 88.074 308.845 87.5229C308.293 86.9717 307.546 86.6618 306.767 86.6609Z" fill="white"/>
<path d="M306.976 87.5008C306.891 87.5009 306.807 87.4746 306.737 87.4256L190.592 6.53889C190.238 6.29388 189.818 6.16294 189.388 6.16367C188.958 6.16441 188.538 6.29677 188.186 6.54298L72.8775 87.4248C72.7863 87.4882 72.6736 87.513 72.5642 87.4936C72.4547 87.4742 72.3575 87.4121 72.2937 87.3212C72.2298 87.2302 72.2047 87.1176 72.2237 87.0081C72.2427 86.8986 72.3043 86.8011 72.3951 86.737L187.704 5.85524C188.197 5.5106 188.785 5.32533 189.387 5.32434C189.989 5.32336 190.577 5.50669 191.072 5.84971L307.217 86.7362C307.29 86.7873 307.345 86.8605 307.374 86.9451C307.403 87.0298 307.404 87.1214 307.377 87.2067C307.35 87.2921 307.297 87.3666 307.225 87.4195C307.153 87.4724 307.066 87.5009 306.976 87.5008H306.976Z" fill="#3F3D56"/>
<path d="M79.4668 90.3683L189.502 8.81824L300.373 96.1707L195.172 158.535L138.057 145.517L79.4668 90.3683Z" fill="#E6E6E6"/>
<path d="M142.878 197.055H88.5176C87.844 197.056 87.1976 196.79 86.7206 196.314C86.2436 195.838 85.9751 195.193 85.9741 194.519C85.9731 193.846 86.2397 193.199 86.7153 192.722C87.1909 192.245 87.8365 191.977 88.5101 191.976H142.878C143.552 191.975 144.198 192.241 144.675 192.717C145.152 193.193 145.42 193.838 145.421 194.512C145.422 195.185 145.156 195.832 144.68 196.309C144.205 196.786 143.559 197.054 142.885 197.055H142.878Z" fill="#3DBC48"/>
<path d="M108.021 186.136H88.5175C87.8442 186.137 87.1983 185.87 86.7217 185.395C86.2451 184.919 85.9768 184.274 85.9758 183.601C85.9748 182.927 86.2412 182.281 86.7164 181.804C87.1916 181.327 87.8367 181.059 88.51 181.057H108.021C108.354 181.056 108.685 181.121 108.994 181.249C109.302 181.376 109.582 181.562 109.819 181.798C110.055 182.033 110.243 182.313 110.371 182.621C110.499 182.929 110.566 183.259 110.566 183.593C110.566 183.927 110.501 184.257 110.374 184.566C110.247 184.874 110.06 185.154 109.824 185.391C109.588 185.627 109.309 185.814 109 185.942C108.692 186.07 108.362 186.136 108.028 186.136H108.021Z" fill="#3DBC48"/>
<path d="M191.05 135.79C190.637 135.791 190.227 135.71 189.845 135.554L121.982 107.396V19.2563C121.983 18.4769 122.293 17.7297 122.844 17.1786C123.396 16.6275 124.143 16.3174 124.922 16.3165H255.111C255.891 16.3174 256.638 16.6275 257.189 17.1786C257.74 17.7297 258.05 18.4769 258.051 19.2563V107.457L257.923 107.512L192.291 135.54C191.898 135.706 191.476 135.79 191.05 135.79Z" fill="white"/>
<path d="M191.05 136C190.609 136.001 190.173 135.915 189.765 135.749L121.772 107.536V19.2565C121.773 18.4215 122.106 17.6209 122.696 17.0304C123.287 16.4399 124.087 16.1078 124.922 16.1068H255.111C255.946 16.1078 256.747 16.4399 257.337 17.0304C257.928 17.6209 258.26 18.4215 258.261 19.2565V107.596L192.374 135.734C191.955 135.91 191.504 136.001 191.05 136ZM122.612 106.975L190.085 134.972C190.715 135.228 191.419 135.223 192.046 134.961L257.421 107.042V19.2565C257.42 18.6442 257.177 18.0571 256.744 17.6241C256.311 17.1911 255.724 16.9475 255.111 16.9468H124.922C124.31 16.9475 123.723 17.1911 123.29 17.6241C122.857 18.0571 122.613 18.6442 122.612 19.2565L122.612 106.975Z" fill="#3F3D56"/>
<path d="M306.137 86.6609H306.053L257.841 107.248L191.877 135.415C191.62 135.523 191.343 135.58 191.063 135.581C190.784 135.582 190.507 135.529 190.248 135.423L122.193 107.189L72.7963 86.6945L72.7208 86.6609H72.6368C71.8573 86.6618 71.1101 86.9717 70.559 87.5229C70.0079 88.074 69.6979 88.8212 69.697 89.6006V217.27C69.6979 218.049 70.0079 218.797 70.559 219.348C71.1101 219.899 71.8573 220.209 72.6368 220.21H306.137C306.917 220.209 307.664 219.899 308.215 219.348C308.766 218.797 309.076 218.049 309.077 217.27V89.6006C309.076 88.8212 308.766 88.074 308.215 87.5229C307.664 86.9717 306.917 86.6618 306.137 86.6609ZM308.237 217.27C308.237 217.827 308.015 218.361 307.622 218.754C307.228 219.148 306.694 219.37 306.137 219.37H72.6368C72.0799 219.37 71.5459 219.148 71.1522 218.754C70.7584 218.361 70.5372 217.827 70.537 217.27V89.6006C70.5377 89.0576 70.7483 88.5359 71.1248 88.1446C71.5012 87.7533 72.0144 87.5226 72.557 87.5008L122.193 108.096L189.925 136.2C190.658 136.498 191.479 136.494 192.209 136.187L257.841 108.159L306.221 87.5008C306.763 87.5242 307.275 87.7555 307.65 88.1466C308.026 88.5377 308.236 89.0585 308.237 89.6006V217.27Z" fill="#3F3D56"/>
<path d="M180.485 49.2635H134.289C133.399 49.2622 132.546 48.9077 131.916 48.2778C131.287 47.6479 130.934 46.794 130.934 45.9038C130.934 45.0136 131.287 44.1597 131.916 43.5298C132.546 42.8999 133.399 42.5453 134.289 42.5441H180.485C181.375 42.5453 182.229 42.8999 182.858 43.5298C183.487 44.1597 183.84 45.0136 183.84 45.9038C183.84 46.794 183.487 47.6479 182.858 48.2778C182.229 48.9077 181.375 49.2622 180.485 49.2635Z" fill="#3DBC48"/>
<path d="M156.547 34.9848H134.289C133.398 34.9848 132.543 34.6308 131.913 34.0008C131.283 33.3707 130.929 32.5161 130.929 31.6251C130.929 30.734 131.283 29.8795 131.913 29.2494C132.543 28.6193 133.398 28.2654 134.289 28.2654H156.547C157.438 28.2654 158.293 28.6193 158.923 29.2494C159.553 29.8795 159.907 30.734 159.907 31.6251C159.907 32.5161 159.553 33.3707 158.923 34.0008C158.293 34.6308 157.438 34.9848 156.547 34.9848Z" fill="#3DBC48"/>
<path d="M224.568 82.8608H154.014C153.124 82.8595 152.27 82.505 151.641 81.8751C151.012 81.2451 150.659 80.3913 150.659 79.5011C150.659 78.6109 151.012 77.757 151.641 77.1271C152.27 76.4972 153.124 76.1426 154.014 76.1414H224.568C225.458 76.1426 226.312 76.4972 226.941 77.1271C227.57 77.757 227.923 78.6109 227.923 79.5011C227.923 80.3913 227.57 81.2451 226.941 81.8751C226.312 82.505 225.458 82.8595 224.568 82.8608Z" fill="#CCCCCC"/>
<path d="M224.568 98.3994H154.014C153.123 98.3994 152.268 98.0454 151.638 97.4153C151.008 96.7853 150.654 95.9307 150.654 95.0397C150.654 94.1486 151.008 93.294 151.638 92.664C152.268 92.0339 153.123 91.6799 154.014 91.6799H224.568C225.459 91.6799 226.313 92.0339 226.944 92.664C227.574 93.294 227.928 94.1486 227.928 95.0397C227.928 95.9307 227.574 96.7853 226.944 97.4153C226.313 98.0454 225.459 98.3994 224.568 98.3994Z" fill="#CCCCCC"/>
<path d="M304.835 119.825C322.478 119.825 336.781 105.522 336.781 87.8782C336.781 70.2346 322.478 55.9316 304.835 55.9316C287.191 55.9316 272.888 70.2346 272.888 87.8782C272.888 105.522 287.191 119.825 304.835 119.825Z" fill="#3DBC48"/>
<path d="M301.791 101.364L292.229 89.0694L297.79 84.7446L302.317 90.5659L317.611 74.4204L322.726 79.2659L301.791 101.364Z" fill="white"/>
<path d="M7.7568 32.1744C7.53874 32.0455 7.28877 31.9806 7.03553 31.9873C6.7823 31.9939 6.53605 32.0718 6.32503 32.2119C6.11401 32.352 5.94675 32.5488 5.84242 32.7796C5.73808 33.0105 5.70092 33.266 5.73515 33.517L6.77628 41.1533C6.7906 41.2659 6.78291 41.3802 6.75364 41.4899C6.72099 41.5978 6.66651 41.6979 6.59359 41.7839L0.76236 48.6921C0.567556 48.9145 0.453178 49.1959 0.437618 49.4911C0.422059 49.7863 0.50623 50.0781 0.67658 50.3197L0.682692 50.3286C0.84588 50.5728 1.08608 50.7554 1.36504 50.8473C1.64401 50.9392 1.9457 50.9351 2.22208 50.8357L6.43326 49.4064C6.57287 49.3602 6.72239 49.3529 6.86585 49.3851C7.0093 49.4174 7.14129 49.4881 7.24766 49.5896C7.32701 49.6631 7.3903 49.7522 7.43352 49.8514C7.47675 49.9506 7.49896 50.0576 7.4988 50.1658L7.66341 65.1701C7.66512 65.3873 7.7197 65.6008 7.82241 65.7922C7.92512 65.9836 8.07289 66.1471 8.25294 66.2686C8.43234 66.3899 8.63821 66.4662 8.85328 66.4913C9.06834 66.5163 9.28627 66.4893 9.48872 66.4126L40.9199 54.392C41.1569 54.3018 41.3636 54.1466 41.5163 53.9441C41.669 53.7417 41.7615 53.5002 41.7831 53.2476C41.8047 52.9949 41.7546 52.7413 41.6384 52.5159C41.5223 52.2905 41.3448 52.1024 41.1266 51.9733L40.6987 51.7192L7.7568 32.1744V32.1744ZM6.26726 33.4437C6.24704 33.2929 6.26967 33.1396 6.33256 33.0011C6.39545 32.8627 6.49607 32.7447 6.62287 32.6608C6.74968 32.5769 6.89755 32.5303 7.04957 32.5265C7.20159 32.5227 7.35161 32.5618 7.48244 32.6393L40.4137 52.1783L40.8521 52.4381C40.9824 52.516 41.0882 52.6289 41.1574 52.7639C41.2266 52.899 41.2564 53.0507 41.2436 53.2019C41.2308 53.3531 41.1757 53.4977 41.0848 53.6191C40.9938 53.7405 40.8705 53.834 40.729 53.8888L9.29788 65.9094C9.17631 65.9556 9.04538 65.9718 8.91621 65.9566C8.78704 65.9414 8.66344 65.8953 8.55593 65.8221C8.44841 65.7489 8.36013 65.6508 8.29863 65.5362C8.23712 65.4216 8.2042 65.2939 8.20264 65.1638L8.03808 50.1596C8.03817 50.0111 8.01268 49.8637 7.96269 49.7239L39.9625 53.4006C40.0873 53.4162 40.2136 53.3877 40.3196 53.3201C40.4256 53.2524 40.5046 53.1498 40.5429 53.03C40.5813 52.9103 40.5766 52.7809 40.5297 52.6642C40.4828 52.5475 40.3965 52.451 40.2859 52.3911C40.2591 52.3762 40.2308 52.3639 40.2016 52.3544L7.31802 41.3779C7.326 41.2785 7.32277 41.1786 7.30839 41.0799L6.26724 33.4437L6.26726 33.4437Z" fill="#F1F1F1"/>
<path d="M7.7568 32.1744C7.53874 32.0455 7.28877 31.9806 7.03553 31.9873C6.7823 31.9939 6.53605 32.0718 6.32503 32.2119C6.11401 32.352 5.94675 32.5488 5.84242 32.7796C5.73808 33.0105 5.70092 33.266 5.73515 33.517L6.77628 41.1533C6.7906 41.2659 6.78291 41.3802 6.75364 41.4899C6.72099 41.5978 6.66651 41.6979 6.59359 41.7839L0.76236 48.6921C0.567556 48.9145 0.453178 49.1959 0.437618 49.4911C0.422059 49.7863 0.50623 50.0781 0.67658 50.3197L0.682692 50.3286C0.84588 50.5728 1.08608 50.7554 1.36504 50.8473C1.64401 50.9392 1.9457 50.9351 2.22208 50.8357L6.43326 49.4064C6.57287 49.3602 6.72239 49.3529 6.86585 49.3851C7.0093 49.4174 7.14129 49.4881 7.24766 49.5896C7.32701 49.6631 7.3903 49.7522 7.43352 49.8514C7.47675 49.9506 7.49896 50.0576 7.4988 50.1658L7.66341 65.1701C7.66512 65.3873 7.7197 65.6008 7.82241 65.7922C7.92512 65.9836 8.07289 66.1471 8.25294 66.2686C8.43234 66.3899 8.63821 66.4662 8.85328 66.4913C9.06834 66.5163 9.28627 66.4893 9.48872 66.4126L40.9199 54.392C41.1569 54.3018 41.3636 54.1466 41.5163 53.9441C41.669 53.7417 41.7615 53.5002 41.7831 53.2476C41.8047 52.9949 41.7546 52.7413 41.6384 52.5159C41.5223 52.2905 41.3448 52.1024 41.1266 51.9733L40.6987 51.7192L7.7568 32.1744V32.1744ZM6.26726 33.4437C6.24704 33.2929 6.26967 33.1396 6.33256 33.0011C6.39545 32.8627 6.49607 32.7447 6.62287 32.6608C6.74968 32.5769 6.89755 32.5303 7.04957 32.5265C7.20159 32.5227 7.35161 32.5618 7.48244 32.6393L40.4137 52.1783L40.8521 52.4381C40.9824 52.516 41.0882 52.6289 41.1574 52.7639C41.2266 52.899 41.2564 53.0507 41.2436 53.2019C41.2308 53.3531 41.1757 53.4977 41.0848 53.6191C40.9938 53.7405 40.8705 53.834 40.729 53.8888L9.29788 65.9094C9.17631 65.9556 9.04538 65.9718 8.91621 65.9566C8.78704 65.9414 8.66344 65.8952 8.55593 65.8221C8.44841 65.7489 8.36015 65.6508 8.29865 65.5362C8.23714 65.4216 8.2042 65.2939 8.20264 65.1638L8.03806 50.1596C8.03815 50.0111 8.01266 49.8637 7.96267 49.7239C7.89225 49.5226 7.77374 49.3415 7.61745 49.1964C7.59619 49.1751 7.57271 49.1553 7.54919 49.1355L7.54768 49.1333C7.37112 48.9876 7.16025 48.8893 6.93506 48.8479C6.70987 48.8066 6.47783 48.8234 6.26098 48.8969L2.04762 50.3278C1.88155 50.388 1.69997 50.3904 1.53236 50.3346C1.36476 50.2787 1.22093 50.1679 1.12421 50.0201L1.12114 50.0156C1.01775 49.8712 0.966573 49.6959 0.976027 49.5186C0.985482 49.3413 1.05501 49.1724 1.17317 49.0398L7.00448 42.1318C7.06682 42.0594 7.12082 41.9803 7.16548 41.8959L7.1677 41.8944C7.2108 41.8135 7.24518 41.7283 7.27026 41.6402C7.29548 41.5547 7.31149 41.4668 7.31804 41.3779C7.32602 41.2785 7.32279 41.1786 7.30841 41.08L6.26726 33.4437V33.4437Z" fill="#E5E5E5"/>
<path d="M7.31801 41.3778L40.2016 52.3544C40.2308 52.3638 40.259 52.3761 40.2859 52.3911C40.3965 52.4509 40.4827 52.5475 40.5296 52.6642C40.5765 52.7808 40.5812 52.9102 40.5429 53.03C40.5045 53.1498 40.4255 53.2523 40.3195 53.32C40.2135 53.3877 40.0872 53.4162 39.9625 53.4006L7.96263 49.7238L7.39753 49.6595L7.4601 49.1251L7.54765 49.1333L7.54913 49.1354L40.0235 52.864L7.16767 41.8943L7.16544 41.8958L7.02344 41.8468L7.19399 41.3358L7.31801 41.3778Z" fill="#E5E5E5"/>
<path d="M374.471 0.478383L341.53 20.0231L341.102 20.2773C340.883 20.4064 340.706 20.5944 340.59 20.8198C340.474 21.0453 340.423 21.2989 340.445 21.5515C340.467 21.8042 340.559 22.0456 340.712 22.2481C340.865 22.4505 341.071 22.6057 341.308 22.6959L372.739 34.7165C372.942 34.7933 373.16 34.8203 373.375 34.7952C373.59 34.7702 373.796 34.6938 373.975 34.5726C374.155 34.4511 374.303 34.2876 374.406 34.0962C374.508 33.9048 374.563 33.6913 374.565 33.4741L374.729 18.4697C374.729 18.3615 374.751 18.2545 374.795 18.1554C374.838 18.0562 374.901 17.9671 374.981 17.8936C375.087 17.792 375.219 17.7214 375.362 17.6891C375.506 17.6568 375.655 17.6642 375.795 17.7103L380.006 19.1397C380.282 19.2391 380.584 19.2432 380.863 19.1513C381.142 19.0594 381.382 18.8768 381.546 18.6326L381.552 18.6237C381.722 18.3821 381.806 18.0902 381.791 17.795C381.775 17.4998 381.661 17.2184 381.466 16.9961L375.635 10.0879C375.562 10.0019 375.507 9.90178 375.475 9.79383C375.445 9.68417 375.438 9.56986 375.452 9.45727L376.493 1.82098C376.527 1.56999 376.49 1.31443 376.386 1.0836C376.281 0.852763 376.114 0.656003 375.903 0.51586C375.692 0.375718 375.446 0.297863 375.193 0.291233C374.939 0.284604 374.689 0.349464 374.471 0.478373V0.478383ZM375.961 1.74764L374.92 9.3839C374.905 9.48253 374.902 9.58247 374.91 9.68183L342.027 20.6584C341.997 20.6678 341.969 20.6801 341.942 20.6951C341.832 20.7549 341.745 20.8515 341.699 20.9682C341.652 21.0848 341.647 21.2142 341.685 21.334C341.724 21.4537 341.803 21.5563 341.909 21.624C342.015 21.6917 342.141 21.7202 342.266 21.7046L374.266 18.0279C374.216 18.1677 374.19 18.3151 374.19 18.4635L374.026 33.4678C374.024 33.5978 373.991 33.7256 373.93 33.8402C373.868 33.9548 373.78 34.0528 373.672 34.126C373.565 34.1992 373.441 34.2454 373.312 34.2606C373.183 34.2757 373.052 34.2595 372.93 34.2133L341.499 22.1927C341.358 22.1379 341.234 22.0445 341.143 21.923C341.052 21.8016 340.997 21.657 340.985 21.5058C340.972 21.3547 341.002 21.2029 341.071 21.0679C341.14 20.9328 341.246 20.82 341.376 20.7421L341.814 20.4822L374.746 0.943268C374.877 0.865772 375.027 0.826689 375.179 0.830486C375.331 0.834284 375.479 0.880812 375.605 0.964744C375.732 1.04868 375.833 1.16661 375.896 1.30507C375.959 1.44352 375.981 1.59688 375.961 1.7476V1.74764Z" fill="#F1F1F1"/>
<path d="M374.471 0.478383L341.53 20.0231L341.102 20.2773C340.883 20.4064 340.706 20.5944 340.59 20.8198C340.474 21.0453 340.423 21.2989 340.445 21.5515C340.467 21.8042 340.559 22.0456 340.712 22.2481C340.865 22.4505 341.071 22.6057 341.308 22.6959L372.739 34.7165C372.942 34.7933 373.16 34.8203 373.375 34.7952C373.59 34.7702 373.796 34.6938 373.975 34.5726C374.155 34.4511 374.303 34.2876 374.406 34.0962C374.508 33.9048 374.563 33.6913 374.565 33.4741L374.729 18.4697C374.729 18.3615 374.751 18.2545 374.795 18.1554C374.838 18.0562 374.901 17.9671 374.981 17.8936C375.087 17.792 375.219 17.7214 375.362 17.6891C375.506 17.6568 375.655 17.6642 375.795 17.7103L380.006 19.1397C380.282 19.2391 380.584 19.2432 380.863 19.1513C381.142 19.0594 381.382 18.8768 381.546 18.6326L381.552 18.6237C381.722 18.3821 381.806 18.0902 381.791 17.795C381.775 17.4998 381.661 17.2184 381.466 16.9961L375.635 10.0879C375.562 10.0019 375.507 9.90178 375.475 9.79383C375.445 9.68417 375.438 9.56986 375.452 9.45727L376.493 1.82098C376.527 1.56999 376.49 1.31443 376.386 1.0836C376.281 0.852763 376.114 0.656003 375.903 0.51586C375.692 0.375718 375.446 0.297863 375.193 0.291233C374.939 0.284604 374.689 0.349464 374.471 0.478373V0.478383ZM375.961 1.74764L374.92 9.38392C374.905 9.48255 374.902 9.58248 374.91 9.68184C374.917 9.77073 374.933 9.85868 374.958 9.94418C374.983 10.0323 375.017 10.1175 375.06 10.1983L375.063 10.1998C375.107 10.2843 375.161 10.3634 375.224 10.4357L381.055 17.3438C381.173 17.4764 381.243 17.6452 381.252 17.8226C381.262 17.9999 381.21 18.1752 381.107 18.3196L381.104 18.324C381.007 18.4718 380.863 18.5827 380.696 18.6385C380.528 18.6944 380.347 18.692 380.181 18.6317L375.967 17.2008C375.75 17.1273 375.518 17.1105 375.293 17.1519C375.068 17.1933 374.857 17.2915 374.68 17.4373L374.679 17.4395C374.655 17.4593 374.632 17.479 374.611 17.5003C374.454 17.6454 374.336 17.8265 374.265 18.0279C374.215 18.1677 374.19 18.315 374.19 18.4635L374.026 33.4678C374.024 33.5978 373.991 33.7256 373.93 33.8401C373.868 33.9547 373.78 34.0528 373.672 34.126C373.565 34.1992 373.441 34.2453 373.312 34.2605C373.183 34.2757 373.052 34.2595 372.93 34.2133L341.499 22.1927C341.358 22.1379 341.234 22.0445 341.143 21.923C341.052 21.8016 340.997 21.6571 340.985 21.5059C340.972 21.3547 341.002 21.2029 341.071 21.0679C341.14 20.9328 341.246 20.82 341.376 20.7421L341.814 20.4822L374.746 0.943278C374.877 0.865783 375.027 0.826699 375.179 0.830497C375.331 0.834294 375.478 0.880823 375.605 0.964754C375.732 1.04869 375.833 1.16662 375.896 1.30508C375.959 1.44353 375.981 1.59689 375.961 1.74761V1.74764Z" fill="#E5E5E5"/>
<path d="M375.034 9.63989L375.205 10.1509L375.063 10.1999L375.06 10.1984L342.205 21.168L374.679 17.4395L374.68 17.4373L374.768 17.4291L374.83 17.9636L374.265 18.0279L342.266 21.7047C342.141 21.7203 342.014 21.6918 341.908 21.6241C341.802 21.5564 341.724 21.4538 341.685 21.3341C341.647 21.2143 341.651 21.0849 341.698 20.9682C341.745 20.8516 341.832 20.755 341.942 20.6952C341.969 20.6802 341.997 20.6679 342.026 20.6585L374.91 9.68192L375.034 9.63989Z" fill="#E5E5E5"/>
<path d="M221.462 128.022C221.237 128.137 221.048 128.314 220.919 128.531C220.789 128.749 220.723 128.999 220.729 129.252C220.735 129.505 220.811 129.752 220.951 129.963C221.09 130.175 221.286 130.343 221.517 130.448L228.527 133.649C228.63 133.697 228.723 133.765 228.8 133.848C228.874 133.933 228.929 134.033 228.963 134.14L231.685 142.761C231.769 143.044 231.946 143.291 232.187 143.462C232.428 143.633 232.72 143.718 233.015 143.703L233.026 143.703C233.32 143.695 233.602 143.59 233.829 143.403C234.056 143.217 234.214 142.959 234.277 142.673L235.32 138.349C235.355 138.207 235.429 138.076 235.533 137.972C235.637 137.868 235.767 137.795 235.91 137.759C236.014 137.731 236.124 137.725 236.23 137.742C236.337 137.758 236.44 137.797 236.531 137.855L249.301 145.734C249.485 145.849 249.695 145.917 249.912 145.932C250.128 145.948 250.346 145.91 250.545 145.823C250.743 145.736 250.917 145.603 251.054 145.435C251.19 145.266 251.283 145.068 251.327 144.855L257.964 111.865C258.015 111.617 257.994 111.359 257.904 111.122C257.815 110.884 257.66 110.677 257.458 110.524C257.256 110.371 257.015 110.278 256.762 110.255C256.51 110.233 256.256 110.282 256.03 110.398L255.587 110.624L221.462 128.022ZM221.739 129.959C221.601 129.895 221.483 129.794 221.4 129.667C221.317 129.54 221.271 129.392 221.267 129.24C221.264 129.088 221.304 128.938 221.382 128.808C221.46 128.677 221.573 128.571 221.709 128.502L255.823 111.11L256.277 110.878C256.412 110.81 256.564 110.781 256.715 110.794C256.866 110.808 257.01 110.864 257.131 110.956C257.252 111.047 257.345 111.171 257.399 111.313C257.453 111.455 257.466 111.609 257.437 111.758L250.799 144.748C250.773 144.875 250.717 144.995 250.635 145.096C250.553 145.197 250.448 145.276 250.329 145.328C250.21 145.38 250.08 145.402 249.95 145.393C249.82 145.384 249.695 145.343 249.584 145.275L236.814 137.396C236.689 137.316 236.55 137.259 236.406 137.226L256.615 112.145C256.694 112.047 256.738 111.925 256.737 111.8C256.737 111.674 256.692 111.552 256.612 111.456C256.531 111.36 256.419 111.294 256.295 111.272C256.172 111.249 256.044 111.27 255.934 111.332C255.907 111.346 255.882 111.364 255.858 111.383L229.007 133.311C228.927 133.251 228.841 133.2 228.75 133.16L221.739 129.959Z" fill="#F1F1F1"/>
<path d="M221.462 128.022C221.237 128.137 221.048 128.314 220.919 128.531C220.789 128.749 220.723 128.999 220.729 129.252C220.735 129.505 220.811 129.752 220.951 129.963C221.09 130.175 221.286 130.343 221.517 130.448L228.527 133.649C228.63 133.697 228.723 133.765 228.8 133.848C228.874 133.933 228.929 134.033 228.963 134.14L231.685 142.761C231.769 143.044 231.946 143.291 232.187 143.462C232.428 143.633 232.72 143.718 233.015 143.703L233.026 143.703C233.32 143.695 233.602 143.59 233.829 143.403C234.056 143.217 234.214 142.959 234.277 142.673L235.32 138.349C235.355 138.207 235.429 138.076 235.533 137.972C235.637 137.868 235.767 137.795 235.91 137.759C236.014 137.731 236.124 137.725 236.23 137.742C236.337 137.758 236.44 137.797 236.531 137.855L249.301 145.734C249.485 145.849 249.695 145.917 249.912 145.932C250.128 145.948 250.346 145.91 250.545 145.823C250.743 145.736 250.917 145.603 251.054 145.435C251.19 145.266 251.283 145.068 251.327 144.855L257.964 111.865C258.015 111.617 257.994 111.359 257.904 111.122C257.815 110.884 257.66 110.677 257.458 110.524C257.256 110.371 257.015 110.278 256.762 110.255C256.51 110.233 256.256 110.282 256.03 110.398L255.587 110.624L221.462 128.022ZM221.739 129.959C221.601 129.895 221.483 129.794 221.4 129.667C221.317 129.54 221.271 129.392 221.267 129.24C221.264 129.088 221.304 128.938 221.382 128.808C221.46 128.677 221.573 128.571 221.709 128.502L255.823 111.11L256.277 110.878C256.412 110.81 256.564 110.781 256.715 110.794C256.866 110.808 257.01 110.864 257.131 110.956C257.252 111.047 257.345 111.171 257.399 111.313C257.453 111.455 257.466 111.609 257.437 111.758L250.799 144.748C250.773 144.875 250.717 144.995 250.635 145.096C250.553 145.197 250.448 145.276 250.329 145.328C250.21 145.38 250.08 145.402 249.95 145.393C249.82 145.384 249.695 145.343 249.584 145.275L236.814 137.396C236.689 137.316 236.55 137.259 236.405 137.226C236.198 137.178 235.981 137.182 235.775 137.236C235.746 137.243 235.717 137.252 235.687 137.261L235.685 137.262C235.467 137.333 235.271 137.459 235.116 137.627C234.961 137.795 234.851 138 234.797 138.223L233.755 142.549C233.717 142.721 233.622 142.876 233.485 142.988C233.348 143.1 233.178 143.162 233.001 143.165L232.996 143.165C232.818 143.175 232.643 143.125 232.498 143.022C232.353 142.919 232.248 142.77 232.199 142.599L229.476 133.979C229.449 133.888 229.411 133.8 229.363 133.717L229.363 133.714C229.318 133.634 229.264 133.56 229.203 133.492C229.144 133.425 229.078 133.364 229.007 133.311C228.927 133.251 228.841 133.2 228.75 133.16L221.739 129.959Z" fill="#E5E5E5"/>
<path d="M229.007 133.311L255.858 111.384C255.882 111.364 255.907 111.347 255.934 111.332C256.044 111.27 256.172 111.249 256.296 111.272C256.419 111.294 256.531 111.36 256.612 111.456C256.693 111.552 256.737 111.674 256.738 111.8C256.738 111.926 256.695 112.048 256.615 112.145L236.406 137.227L236.049 137.67L235.631 137.331L235.685 137.262L235.687 137.262L256.194 111.806L229.363 133.714L229.363 133.717L229.246 133.811L228.905 133.394L229.007 133.311Z" fill="#E5E5E5"/>
</svg>
